<svg width="15" height="18" viewBox="0 0 15 18" fill="none" xmlns="http://www.w3.org/2000/svg">
<path fill-rule="evenodd" clip-rule="evenodd" d="M13.4004 9C13.4004 7.24704 13.3678 5.94159 13.2334 4.95605C13.0986 3.96794 12.8711 3.38911 12.5488 3.02051C12.2373 2.66446 11.7644 2.4224 10.9434 2.27832C10.1115 2.13237 9.00512 2.09961 7.5 2.09961C5.99488 2.09961 4.88852 2.13237 4.05664 2.27832C3.23556 2.4224 2.76273 2.66445 2.45117 3.02051C2.12884 3.3891 1.90136 3.96791 1.7666 4.95605C1.63221 5.94158 1.59958 7.24704 1.59961 9C1.59964 10.753 1.63221 12.0584 1.7666 13.0439C1.90135 14.0321 2.12888 14.6109 2.45117 14.9795C2.76271 15.3356 3.23554 15.5776 4.05664 15.7217C4.88851 15.8676 5.99482 15.9004 7.5 15.9004C9.00518 15.9004 10.1115 15.8676 10.9434 15.7217C11.7645 15.5776 12.2373 15.3356 12.5488 14.9795C12.8712 14.6109 13.0986 14.0321 13.2334 13.0439C13.3678 12.0584 13.4004 10.753 13.4004 9ZM14.5996 9C14.5996 10.747 14.5697 12.1291 14.4229 13.2061C14.2764 14.2799 14.0036 15.1381 13.4512 15.7695C12.8877 16.4135 12.1105 16.7349 11.1504 16.9033C10.201 17.0699 8.99476 17.0996 7.5 17.0996C6.00521 17.0996 4.79896 17.0699 3.84961 16.9033C2.88975 16.7349 2.11222 16.4142 1.54883 15.7705C0.996355 15.1391 0.723588 14.28 0.577149 13.2061C0.430296 12.1291 0.400421 10.747 0.40039 9C0.40036 7.25302 0.430285 5.8709 0.577148 4.79394C0.723599 3.72001 0.99632 2.86092 1.54883 2.22949C2.11225 1.58585 2.88975 1.26509 3.84961 1.09668C4.79897 0.930129 6.00524 0.90039 7.5 0.90039C8.99478 0.90039 10.201 0.930124 11.1504 1.09668C12.1103 1.26509 12.8878 1.58582 13.4512 2.22949C14.0037 2.86092 14.2764 3.72002 14.4229 4.79394C14.5697 5.8709 14.5996 7.25303 14.5996 9ZM11.4999 5.49993C11.4999 4.9734 11.496 4.67201 11.4442 4.46477C11.4219 4.37552 11.3959 4.32983 11.3739 4.30266C11.353 4.27686 11.3159 4.24321 11.2343 4.20696C11.0465 4.12352 10.7092 4.06143 10.0771 4.0302C9.46396 3.99992 8.64218 3.99992 7.52403 3.99993L7.4999 3.99993L7.4758 3.99993C6.35764 3.99992 5.53585 3.99992 4.92275 4.0302C4.29059 4.06143 3.95327 4.12352 3.76553 4.20696C3.68395 4.24321 3.64683 4.27686 3.62588 4.30266C3.60387 4.32983 3.5779 4.37552 3.55557 4.46477C3.50376 4.67201 3.4999 4.9734 3.4999 5.49993C3.4999 6.02645 3.50376 6.32784 3.55557 6.53508C3.5779 6.62433 3.60387 6.67002 3.62588 6.69719C3.64683 6.72299 3.68395 6.75664 3.76553 6.79289C3.95327 6.87634 4.29059 6.93842 4.92275 6.96965C5.53584 6.99993 6.35762 6.99993 7.47576 6.99993L7.4758 6.99993L7.4999 6.99993L7.52409 6.99993L7.52412 6.99993C8.64222 6.99993 9.46398 6.99993 10.0771 6.96965C10.7092 6.93842 11.0465 6.87634 11.2343 6.79289C11.3159 6.75664 11.353 6.72299 11.3739 6.69719C11.3959 6.67002 11.4219 6.62433 11.4442 6.53508C11.496 6.32784 11.4999 6.02645 11.4999 5.49993ZM12.4999 5.49993L12.4999 5.55586L12.4999 5.55587C12.5001 6.00858 12.5002 6.43607 12.4149 6.77727C12.367 6.96904 12.2873 7.15803 12.1513 7.3261C12.014 7.49558 11.84 7.61832 11.6405 7.70696C11.2658 7.87351 10.7592 7.93643 10.1259 7.9677C9.47777 7.99969 8.6193 7.99993 7.4999 7.99993C6.3805 7.99993 5.52203 7.99969 4.87393 7.9677C4.24061 7.93642 3.73401 7.87351 3.35928 7.70696C3.15984 7.61832 2.98582 7.49558 2.84854 7.3261C2.71247 7.15803 2.63281 6.96904 2.58486 6.77727C2.49961 6.43607 2.49975 6.00858 2.49989 5.55586L2.4999 5.49993L2.49989 5.444C2.49975 4.99128 2.49961 4.56378 2.58486 4.22258C2.63281 4.03082 2.71247 3.84182 2.84854 3.67375C2.98582 3.50427 3.15984 3.38153 3.35928 3.29289C3.73401 3.12635 4.24061 3.06343 4.87393 3.03215C5.52203 3.00016 6.3805 2.99993 7.4999 2.99993C8.6193 2.99993 9.47777 3.00016 10.1259 3.03215C10.7592 3.06343 11.2658 3.12635 11.6405 3.29289C11.84 3.38153 12.014 3.50427 12.1513 3.67375C12.2873 3.84182 12.367 4.03082 12.4149 4.22258C12.5002 4.56378 12.5001 4.99127 12.4999 5.44398L12.4999 5.44399L12.4999 5.49993ZM9.74966 9.74993C9.74966 10.1641 10.0854 10.4999 10.4997 10.4999C10.9139 10.4999 11.2497 10.1641 11.2497 9.74993C11.2497 9.33571 10.9139 8.99993 10.4997 8.99993C10.0854 8.99993 9.74966 9.33571 9.74966 9.74993ZM10.4997 12.5C10.0854 12.5 9.74966 12.1643 9.74966 11.75C9.74966 11.3358 10.0854 11 10.4997 11C10.9139 11 11.2497 11.3358 11.2497 11.75C11.2497 12.1643 10.9139 12.5 10.4997 12.5ZM9.74963 13.75C9.74963 14.1642 10.0854 14.5 10.4996 14.5C10.9138 14.5 11.2496 14.1642 11.2496 13.75C11.2496 13.3358 10.9138 13 10.4996 13C10.0854 13 9.74963 13.3358 9.74963 13.75ZM7.49966 10.4999C7.08544 10.4999 6.74966 10.1641 6.74966 9.74993C6.74966 9.33571 7.08544 8.99993 7.49966 8.99993C7.91387 8.99993 8.24966 9.33571 8.24966 9.74993C8.24966 10.1641 7.91387 10.4999 7.49966 10.4999ZM6.74551 11.75C6.74551 12.1643 7.08129 12.5 7.49551 12.5C7.90972 12.5 8.24551 12.1643 8.24551 11.75C8.24551 11.3358 7.90972 11 7.49551 11C7.08129 11 6.74551 11.3358 6.74551 11.75ZM4.49966 10.4999C4.08544 10.4999 3.74966 10.1641 3.74966 9.74993C3.74966 9.33571 4.08545 8.99993 4.49966 8.99993C4.91387 8.99993 5.24966 9.33571 5.24966 9.74993C5.24966 10.1641 4.91387 10.4999 4.49966 10.4999ZM3.74551 11.75C3.74551 12.1643 4.08129 12.5 4.49551 12.5C4.90972 12.5 5.24551 12.1643 5.24551 11.75C5.24551 11.3358 4.90972 11 4.49551 11C4.08129 11 3.74551 11.3358 3.74551 11.75ZM7.49963 14.5C7.08542 14.5 6.74963 14.1642 6.74963 13.75C6.74963 13.3358 7.08542 13 7.49963 13C7.91385 13 8.24963 13.3358 8.24963 13.75C8.24963 14.1642 7.91384 14.5 7.49963 14.5ZM3.74963 13.75C3.74963 14.1642 4.08542 14.5 4.49963 14.5C4.91385 14.5 5.24963 14.1642 5.24963 13.75C5.24963 13.3358 4.91385 13 4.49963 13C4.08542 13 3.74963 13.3358 3.74963 13.75Z" fill="white" fill-opacity="0.6"/>
</svg>
