<svg width="222" height="222" viewBox="0 0 222 222" fill="none" xmlns="http://www.w3.org/2000/svg">
<path d="M9.44434 66.1595L60.2656 116.525V12.5723C37.6209 24.0921 20.0827 43.0589 9.44434 66.1595Z" fill="white" fill-opacity="0.1"/>
<path d="M79.202 151.145L5.28019 77.2236C-2.10591 99.8683 -2.10591 126.677 7.59025 150.689H79.202V151.145Z" fill="white" fill-opacity="0.1"/>
<path d="M66.2837 212.604L116.649 161.783H12.6965C24.2164 184.428 43.1832 201.966 66.2837 212.604Z" fill="white" fill-opacity="0.1"/>
<path d="M70.9041 7.46587V79.0776L144.826 5.15581C119.871 -2.68622 94.0046 -1.31842 70.9041 7.46587Z" fill="white" fill-opacity="0.1"/>
<path d="M151.27 214.459V142.848L77.3479 216.769C99.9925 224.156 126.801 223.7 151.27 214.459Z" fill="white" fill-opacity="0.1"/>
<path d="M155.89 9.32031L105.555 60.1415H209.507C197.957 37.4969 178.99 19.9587 155.89 9.32031Z" fill="white" fill-opacity="0.1"/>
<path d="M212.273 155.766L161.908 105.431V209.839C184.553 197.833 202.091 178.866 212.273 155.766Z" fill="white" fill-opacity="0.1"/>
<path d="M142.972 70.7793L216.438 144.245C223.824 121.145 223.824 94.8221 214.127 70.7793H142.972Z" fill="white" fill-opacity="0.1"/>
</svg>
