<svg width="21" height="20" viewBox="0 0 21 20" fill="none" xmlns="http://www.w3.org/2000/svg">
<path opacity="0.4" d="M18 15.5996H9V14.4004H18V15.5996ZM18 10.5996H9V9.40039H18V10.5996ZM18 5.59961H9V4.40039H18V5.59961Z" fill="white" fill-opacity="0.6"/>
<path opacity="0.4" d="M5.25 13.75C5.94036 13.75 6.5 14.3096 6.5 15C6.5 15.6904 5.94036 16.25 5.25 16.25C4.55964 16.25 4 15.6904 4 15C4 14.3096 4.55964 13.75 5.25 13.75ZM5.25 8.75C5.94036 8.75 6.5 9.30964 6.5 10C6.5 10.6904 5.94036 11.25 5.25 11.25C4.55964 11.25 4 10.6904 4 10C4 9.30964 4.55964 8.75 5.25 8.75ZM5.25 3.75C5.94036 3.75 6.5 4.30964 6.5 5C6.5 5.69036 5.94036 6.25 5.25 6.25C4.55964 6.25 4 5.69036 4 5C4 4.30964 4.55964 3.75 5.25 3.75Z" fill="white" fill-opacity="0.6"/>
</svg>
