<svg width="20" height="20" viewBox="0 0 20 20" fill="none" xmlns="http://www.w3.org/2000/svg">
<path d="M9.99939 2.40039C11.6301 2.40039 12.9196 2.42771 13.9242 2.55469C14.9228 2.681 15.7273 2.91499 16.3236 3.39062C16.9406 3.88307 17.2518 4.56617 17.4135 5.39941C17.5718 6.21579 17.599 7.24519 17.599 8.5C17.599 9.75484 17.5717 10.7842 17.4135 11.6006C17.2518 12.434 16.9408 13.1168 16.3236 13.6094C16.2406 13.6756 16.1529 13.7358 16.0619 13.793C16.3951 13.8711 16.7034 13.9663 16.9711 14.084C17.5045 14.3186 18.0988 14.7489 18.099 15.5C18.099 15.791 18.0665 16.1874 17.7728 16.54C17.4947 16.8738 17.0633 17.0712 16.5199 17.207C15.436 17.4779 13.4857 17.5996 9.99939 17.5996C6.51305 17.5996 4.56266 17.478 3.47888 17.207C2.93569 17.0712 2.50404 16.8737 2.22595 16.54C1.93255 16.1875 1.89978 15.7909 1.89978 15.5C1.90003 14.749 2.49431 14.3186 3.02771 14.084C3.29509 13.9664 3.60318 13.8711 3.93591 13.793C3.84538 13.736 3.75778 13.6753 3.67517 13.6094C3.0583 13.1169 2.74693 12.4338 2.58533 11.6006C2.42706 10.7842 2.39978 9.75476 2.39978 8.5C2.39979 7.24518 2.427 6.2158 2.58533 5.39941C2.74698 4.56612 3.05813 3.88309 3.67517 3.39062C4.27144 2.91481 5.07589 2.68104 6.07458 2.55469C7.07915 2.42767 8.36862 2.4004 9.99939 2.40039ZM9.99939 14.5996C8.55978 14.5996 6.7239 14.6011 5.25037 14.7832C4.50804 14.8749 3.90807 15.0066 3.51013 15.1816C3.31264 15.2685 3.20095 15.3514 3.1449 15.4121C3.09999 15.4609 3.09901 15.4847 3.099 15.5C3.099 15.7075 3.12921 15.75 3.14783 15.7725C3.18239 15.8138 3.31438 15.929 3.7699 16.043C4.68604 16.272 6.48624 16.4004 9.99939 16.4004C13.5125 16.4004 15.3126 16.272 16.2289 16.043C16.6848 15.929 16.8164 15.8138 16.851 15.7725C16.8695 15.7501 16.8998 15.7087 16.8998 15.5C16.8998 15.4847 16.8988 15.4609 16.8539 15.4121C16.7977 15.3514 16.6858 15.2684 16.4886 15.1816C16.0906 15.0067 15.4906 14.8749 14.7484 14.7832C13.2748 14.6012 11.4389 14.5996 9.99939 14.5996ZM9.99939 3.59961C8.36431 3.59961 7.14515 3.62972 6.22498 3.74609C5.29904 3.86324 4.76018 4.05923 4.42322 4.32812C4.10726 4.58034 3.89306 4.95786 3.76306 5.62793C3.62977 6.31529 3.59901 7.23441 3.599 8.5C3.599 9.76551 3.62983 10.6847 3.76306 11.3721C3.893 12.0421 4.10742 12.4196 4.42322 12.6719C4.76016 12.9408 5.2991 13.1368 6.22498 13.2539C7.14515 13.3703 8.36431 13.4004 9.99939 13.4004C11.6345 13.4004 12.8536 13.3703 13.7738 13.2539C14.6999 13.1368 15.2386 12.9408 15.5756 12.6719C15.8916 12.4196 16.1057 12.0424 16.2357 11.3721C16.369 10.6847 16.3998 9.7656 16.3998 8.5C16.3998 7.23442 16.369 6.31529 16.2357 5.62793C16.1057 4.95792 15.8915 4.58032 15.5756 4.32812C15.2385 4.05938 14.6995 3.86319 13.7738 3.74609C12.8536 3.62976 11.6344 3.59961 9.99939 3.59961Z" fill="white" fill-opacity="0.6"/>
</svg>
