<svg width="20" height="20" viewBox="0 0 20 20" fill="none" xmlns="http://www.w3.org/2000/svg">
<path d="M16.2477 3.83882C15.0825 3.29367 13.8367 2.89747 12.5342 2.67188C12.3742 2.96108 12.1873 3.35007 12.0585 3.65952C10.6739 3.45129 9.30201 3.45129 7.94287 3.65952C7.81404 3.35007 7.62292 2.96108 7.46152 2.67188C6.15761 2.89747 4.91032 3.29512 3.74514 3.84171C1.39498 7.39311 0.757892 10.8563 1.07644 14.2703C2.63519 15.4344 4.14581 16.1415 5.63093 16.6042C5.99762 16.0995 6.32465 15.5631 6.60638 14.9977C6.06981 14.7938 5.5559 14.5422 5.07031 14.2501C5.19913 14.1546 5.32514 14.0549 5.44689 13.9522C8.40865 15.3375 11.6267 15.3375 14.5531 13.9522C14.6762 14.0549 14.8022 14.1546 14.9296 14.2501C14.4426 14.5436 13.9273 14.7952 13.3907 14.9991C13.6724 15.5631 13.9981 16.101 14.3662 16.6056C15.8527 16.1429 17.3647 15.4358 18.9235 14.2703C19.2973 10.3126 18.285 6.88122 16.2477 3.83882ZM7.00988 12.1707C6.12079 12.1707 5.39166 11.3407 5.39166 10.33C5.39166 9.31919 6.10522 8.48774 7.00988 8.48774C7.91457 8.48774 8.64367 9.31774 8.6281 10.33C8.62951 11.3407 7.91457 12.1707 7.00988 12.1707ZM12.9901 12.1707C12.101 12.1707 11.3718 11.3407 11.3718 10.33C11.3718 9.31919 12.0854 8.48774 12.9901 8.48774C13.8947 8.48774 14.6238 9.31774 14.6083 10.33C14.6083 11.3407 13.8947 12.1707 12.9901 12.1707Z" fill="white" fill-opacity="0.95"/>
</svg>
