<?xml version="1.0" encoding="UTF-8" standalone="no"?>
<svg
   width="89.569099"
   height="89.568604"
   viewBox="0 0 89.569099 89.568604"
   fill="none"
   version="1.1"
   id="svg1"
   sodipodi:docname="fail.svg"
   inkscape:version="1.4-beta3 (01c8a1ca, 2024-08-28)"
   xmlns:inkscape="http://www.inkscape.org/namespaces/inkscape"
   xmlns:sodipodi="http://sodipodi.sourceforge.net/DTD/sodipodi-0.dtd"
   xmlns="http://www.w3.org/2000/svg"
   xmlns:svg="http://www.w3.org/2000/svg">
  <defs
     id="defs1" />
  <sodipodi:namedview
     id="namedview1"
     pagecolor="#ffffff"
     bordercolor="#000000"
     borderopacity="0.25"
     inkscape:showpageshadow="2"
     inkscape:pageopacity="0.0"
     inkscape:pagecheckerboard="0"
     inkscape:deskcolor="#d1d1d1"
     inkscape:zoom="1.6124031"
     inkscape:cx="44.34375"
     inkscape:cy="44.653846"
     inkscape:window-width="1472"
     inkscape:window-height="619"
     inkscape:window-x="0"
     inkscape:window-y="38"
     inkscape:window-maximized="0"
     inkscape:current-layer="svg1" />
  <path
     d="m 44.7812,0 c 24.733,0 44.7859,20.0488 44.7879,44.7813 0,24.7342 -20.0536,44.7873 -44.7879,44.7873 C 20.0477,89.5676 0,69.515 0,44.7813 0.0021,20.0493 20.049,9e-4 44.7812,0 Z m 0,7.675 C 24.2906,7.6759 7.6771,24.2909 7.675,44.7813 c 0,20.4921 16.6143,37.1053 37.1062,37.1063 20.4928,0 37.1059,-16.6136 37.1059,-37.1063 C 81.8851,24.2903 65.2727,7.675 44.7812,7.675 Z m 19.7813,22.7625 -14.35,14.3438 14.35,14.35 -5.4313,5.425 -14.35,-14.35 -14.3437,14.35 -5.425,-5.425 14.3437,-14.35 -14.3437,-14.3438 5.425,-5.4312 14.3437,14.3437 14.35,-14.3437 z"
     fill="#ff5050"
     id="path1" />
</svg>
