<svg width="20" height="20" viewBox="0 0 20 20" fill="none" xmlns="http://www.w3.org/2000/svg">
<g clip-path="url(#clip0_5060_36685)">
<path d="M10.5996 2.40625C11.2459 2.42012 11.8459 2.45865 12.4004 2.52832V1H13.5996V2.74902C14.5764 2.99698 15.3701 3.39746 15.9863 4.01367C16.6542 4.68153 17.0662 5.55848 17.3076 6.65039H19V7.84961H17.499C17.5505 8.33332 17.581 8.84998 17.5928 9.40039H19.5V10.5996H17.5928C17.5768 11.3444 17.5281 12.0275 17.4365 12.6504H19V13.8496H17.1816C16.9306 14.7125 16.549 15.4236 15.9863 15.9863C15.3702 16.6025 14.5763 17.002 13.5996 17.25V19H12.4004V17.4707C11.8459 17.5404 11.246 17.5789 10.5996 17.5928V19.5H9.40039V17.5928C8.75403 17.5789 8.15409 17.5404 7.59961 17.4707V19H6.40039V17.25C5.42375 17.002 4.62983 16.6025 4.01367 15.9863C3.45098 15.4236 3.06945 14.7125 2.81836 13.8496H1V12.6504H2.56348C2.47185 12.0275 2.42321 11.3444 2.40723 10.5996H0.5V9.40039H2.40723C2.41904 8.84998 2.44952 8.33332 2.50098 7.84961H1V6.65039H2.69238C2.93384 5.55848 3.34582 4.68153 4.01367 4.01367C4.62988 3.39746 5.42364 2.99698 6.40039 2.74902V1H7.59961V2.52832C8.15406 2.45865 8.75407 2.42012 9.40039 2.40625V0.5H10.5996V2.40625ZM10 3.59961C7.25657 3.59961 5.73651 3.98615 4.86133 4.86133C3.98615 5.73651 3.59961 7.25657 3.59961 10C3.59961 12.7434 3.98615 14.2635 4.86133 15.1387C5.73651 16.0139 7.25657 16.4004 10 16.4004C12.7434 16.4004 14.2635 16.0139 15.1387 15.1387C16.0139 14.2635 16.4004 12.7434 16.4004 10C16.4004 7.25657 16.0139 5.73651 15.1387 4.86133C14.2635 3.98615 12.7434 3.59961 10 3.59961ZM10 5.40039C10.8796 5.40039 11.6151 5.43034 12.2129 5.54297C12.8165 5.65671 13.3377 5.86507 13.7363 6.26367C14.1349 6.66227 14.3433 7.18353 14.457 7.78711C14.5697 8.38493 14.5996 9.1204 14.5996 10C14.5996 10.8796 14.5697 11.6151 14.457 12.2129C14.3433 12.8165 14.1349 13.3377 13.7363 13.7363C13.3377 14.1349 12.8165 14.3433 12.2129 14.457C11.6151 14.5697 10.8796 14.5996 10 14.5996C9.12179 14.5996 8.38303 14.5695 7.78125 14.4492C7.16961 14.3269 6.64245 14.1006 6.24512 13.668C5.85388 13.2417 5.65205 12.6848 5.54102 12.0342C5.4303 11.3852 5.40039 10.5784 5.40039 9.59961C5.4004 8.81916 5.43074 8.15402 5.5459 7.60645C5.66328 7.04845 5.87842 6.56328 6.2832 6.19434C6.68173 5.83123 7.19797 5.64152 7.79395 5.53613C8.38766 5.43116 9.11924 5.40039 10 5.40039ZM10 6.59961C9.13076 6.59961 8.48734 6.63212 8.00293 6.71777C7.52094 6.803 7.25575 6.93172 7.0918 7.08105C6.93427 7.22458 6.80545 7.44602 6.71973 7.85352C6.63189 8.27132 6.59962 8.83074 6.59961 9.59961C6.59961 10.5708 6.6322 11.2904 6.72461 11.832C6.81668 12.3716 6.95898 12.6704 7.12988 12.8564C7.29499 13.0362 7.54955 13.1792 8.01562 13.2725C8.49188 13.3677 9.12843 13.4004 10 13.4004C10.8703 13.4004 11.51 13.3678 11.9902 13.2773C12.4647 13.188 12.7248 13.0525 12.8887 12.8887C13.0525 12.7248 13.188 12.4647 13.2773 11.9902C13.3678 11.51 13.4004 10.8703 13.4004 10C13.4004 9.12971 13.3678 8.49005 13.2773 8.00977C13.188 7.5353 13.0525 7.27519 12.8887 7.11133C12.7248 6.94747 12.4647 6.81205 11.9902 6.72266C11.51 6.63219 10.8703 6.59961 10 6.59961Z" fill="#010101"/>
</g>
<defs>
<clipPath id="clip0_5060_36685">
<rect width="20" height="20" fill="white"/>
</clipPath>
</defs>
</svg>
