<svg width="20" height="20" viewBox="0 0 20 20" fill="none" xmlns="http://www.w3.org/2000/svg">
<path d="M17.0996 10C17.0996 11.7467 17.0696 13.1292 16.9229 14.2061C16.7765 15.2797 16.5034 16.1382 15.9512 16.7695C15.3878 17.4134 14.6103 17.7348 13.6504 17.9033C12.7011 18.0698 11.4946 18.0996 10 18.0996C8.50537 18.0996 7.29891 18.0698 6.34961 17.9033C5.38975 17.7349 4.61222 17.4142 4.04883 16.7705C3.49639 16.1391 3.22358 15.28 3.07715 14.2061C2.93034 13.1292 2.90042 11.7468 2.90039 10C2.90036 8.25323 2.9303 6.87081 3.07715 5.79394C3.22361 4.72024 3.4964 3.86082 4.04883 3.22949C4.61222 2.58615 5.38997 2.26505 6.34961 2.09668C7.2989 1.9302 8.50548 1.90039 10 1.90039C11.4946 1.9004 12.7011 1.93014 13.6504 2.09668C14.6101 2.2651 15.3878 2.58593 15.9512 3.22949C16.5036 3.86084 16.7764 4.7202 16.9229 5.79395C17.0697 6.87081 17.0996 8.25324 17.0996 10ZM15.9004 10C15.9004 8.24727 15.8678 6.9415 15.7334 5.95605C15.5986 4.96817 15.3711 4.38906 15.0488 4.02051C14.7373 3.66453 14.2642 3.4224 13.4434 3.27832C12.6116 3.13238 11.5049 3.09961 10 3.09961C8.49515 3.09961 7.38847 3.13244 6.55664 3.27832C5.7359 3.42234 5.26274 3.66469 4.95117 4.02051C4.62889 4.38904 4.40137 4.9682 4.2666 5.95605C4.13222 6.9415 4.09958 8.24726 4.09961 10C4.09964 11.7527 4.13226 13.0584 4.2666 14.0439C4.40135 15.032 4.62891 15.6109 4.95117 15.9795C5.26271 16.3356 5.73554 16.5776 6.55664 16.7217C7.38847 16.8676 8.495 16.9004 10 16.9004C11.505 16.9004 12.6115 16.8676 13.4434 16.7217C14.2642 16.5776 14.7373 16.3355 15.0488 15.9795C15.371 15.6109 15.5987 15.0317 15.7334 14.0439C15.8677 13.0585 15.9004 11.7527 15.9004 10ZM15 6.5C15 6.97317 15.0037 7.4222 14.915 7.77734C14.8671 7.96894 14.7872 8.15822 14.6514 8.32617C14.5142 8.4955 14.3398 8.61841 14.1406 8.70703C13.766 8.87354 13.2591 8.93649 12.626 8.96777C11.978 8.99976 11.1192 9 10 9C8.88087 9 8.02207 8.99975 7.37402 8.96777C6.74086 8.93651 6.23408 8.87349 5.85937 8.70703C5.65994 8.61839 5.48591 8.49564 5.34863 8.32617C5.21257 8.15811 5.1329 7.96911 5.08496 7.77734C5.01844 7.51095 5.00309 7.19211 5 6.84961L5 6.15137C5.00309 5.80867 5.01837 5.48916 5.08496 5.22266C5.13291 5.03105 5.21268 4.84176 5.34863 4.67383C5.48579 4.50466 5.65925 4.38152 5.8584 4.29297C6.23304 4.12646 6.73995 4.06351 7.37305 4.03223C8.02106 4.00024 8.87986 4 9.99902 4C11.1181 4 11.977 4.00026 12.625 4.03223C13.258 4.06349 13.765 4.1266 14.1396 4.29297C14.3391 4.38161 14.5141 4.50435 14.6514 4.67383C14.7874 4.84182 14.8671 5.03098 14.915 5.22266C15.0038 5.57778 15 6.02676 15 6.5ZM14 6.5C14 5.9737 13.9961 5.67204 13.9443 5.46484C13.922 5.37577 13.896 5.32988 13.874 5.30273C13.8531 5.27696 13.8158 5.24324 13.7344 5.20703C13.5467 5.12361 13.209 5.06151 12.5771 5.03027C11.9597 4.99978 11.1302 5 10 5C8.86984 5 8.04029 4.9998 7.42285 5.03027C6.79129 5.06147 6.45347 5.12371 6.26562 5.20703C6.18453 5.24307 6.147 5.27699 6.12598 5.30273C6.10401 5.32986 6.07798 5.3759 6.05566 5.46484C6.00387 5.67204 6 5.9737 6 6.5C6 7.02633 6.00391 7.32792 6.05566 7.53516C6.078 7.6244 6.10397 7.67009 6.12598 7.69727C6.14693 7.72306 6.18407 7.75672 6.26562 7.79297C6.45342 7.87635 6.79099 7.93851 7.42285 7.96973C8.04029 8.0002 8.86982 8 10 8C11.1302 8 11.9597 8.00022 12.5771 7.96973C13.209 7.93849 13.5467 7.87639 13.7344 7.79297C13.8156 7.7568 13.8531 7.72301 13.874 7.69727C13.896 7.67004 13.9221 7.6239 13.9443 7.53516C13.996 7.32793 14 7.02613 14 6.5ZM7.74512 12.751C7.74485 13.165 7.40917 13.501 6.99512 13.501C6.58107 13.501 6.24538 13.165 6.24512 12.751C6.24512 12.3368 6.5809 12.001 6.99512 12.001C7.40933 12.001 7.74512 12.3368 7.74512 12.751ZM7.74902 10.75C7.74902 11.1642 7.41324 11.5 6.99902 11.5C6.58492 11.4999 6.24902 11.1641 6.24902 10.75C6.24922 10.336 6.58504 10.0001 6.99902 10C7.41311 10 7.74882 10.336 7.74902 10.75ZM7.74902 14.75C7.74902 15.1642 7.41324 15.5 6.99902 15.5C6.58491 15.4999 6.24902 15.1641 6.24902 14.75C6.24926 14.3361 6.58506 14.0001 6.99902 14C7.41309 14 7.74879 14.336 7.74902 14.75ZM10.7451 12.751C10.7449 13.165 10.4092 13.501 9.99512 13.501C9.58107 13.501 9.24538 13.165 9.24512 12.751C9.24512 12.3368 9.5809 12.001 9.99512 12.001C10.4093 12.001 10.7451 12.3368 10.7451 12.751ZM10.749 10.75C10.749 11.1642 10.4132 11.5 9.99902 11.5C9.58492 11.4999 9.24902 11.1641 9.24902 10.75C9.24922 10.336 9.58504 10.0001 9.99902 10C10.4131 10 10.7488 10.336 10.749 10.75ZM10.749 14.75C10.749 15.1642 10.4132 15.5 9.99902 15.5C9.58491 15.4999 9.24902 15.1641 9.24902 14.75C9.24926 14.3361 9.58506 14.0001 9.99902 14C10.4131 14 10.7488 14.336 10.749 14.75ZM13.749 10.75C13.749 11.1642 13.4132 11.5 12.999 11.5C12.5849 11.4999 12.249 11.1641 12.249 10.75C12.2492 10.336 12.585 10.0001 12.999 10C13.4131 10 13.7488 10.336 13.749 10.75ZM13.749 12.751C13.7488 13.165 13.4131 13.501 12.999 13.501C12.5851 13.5008 12.2493 13.1649 12.249 12.751C12.249 12.3368 12.5849 12.0011 12.999 12.001C13.4132 12.001 13.749 12.3368 13.749 12.751ZM13.749 14.75C13.749 15.1642 13.4132 15.5 12.999 15.5C12.5849 15.4999 12.249 15.1641 12.249 14.75C12.2493 14.3361 12.5851 14.0001 12.999 14C13.4131 14 13.7488 14.336 13.749 14.75Z" fill="#010101"/>
</svg>
