<svg width="95" height="40" viewBox="0 0 95 40" fill="none" xmlns="http://www.w3.org/2000/svg">
<g clip-path="url(#clip0_5060_35923)">
<path d="M25.7713 34.2064C24.3565 34.2064 23.1438 33.9036 22.1331 33.2983C21.1224 32.6929 20.314 31.8856 19.7076 30.7758C19.1012 29.6658 18.8991 28.455 18.8991 26.9413C18.8991 25.5288 19.2023 24.217 19.7076 23.1071C20.2129 21.9972 21.0213 21.089 22.032 20.4836C23.0427 19.8782 24.2555 19.4746 25.6704 19.4746C26.8831 19.4746 27.9948 19.7773 28.9044 20.2818C29.9151 20.7863 30.6226 21.5936 31.2288 22.6026C31.8352 23.6116 32.0373 24.9233 32.0373 26.4369V27.9504H22.4363C22.5373 28.9594 22.9416 29.8675 23.447 30.473C24.0533 31.0784 24.7608 31.3812 25.8724 31.3812C26.681 31.3812 27.3884 31.1793 27.7927 30.7758C28.197 30.3721 28.5001 29.9684 28.7023 29.3631L31.9363 30.2712C31.7341 30.8765 31.431 31.583 30.9256 32.1883C30.4204 32.7938 29.814 33.2983 28.9044 33.7019C27.9948 34.0045 26.9841 34.2064 25.7713 34.2064ZM25.5693 22.5017C24.7608 22.5017 24.0533 22.8043 23.548 23.3089C23.0426 23.8133 22.6384 24.5198 22.4363 25.5288H28.6012C28.6012 24.7216 28.298 24.0152 27.7927 23.4098C27.1863 22.8043 26.4788 22.5017 25.5693 22.5017Z" fill="white"/>
<path d="M36.9889 34.6092L37.2921 33.9027L32.1378 19.7764H35.8772L39.0102 29.1604H39.2124L42.3453 19.7764H46.0846L40.0208 36.1226C39.8186 36.6272 39.5155 37.2325 39.1113 37.7372C38.7071 38.2416 38.2017 38.7462 37.5953 39.0488C36.9889 39.3515 36.1804 39.5534 35.2708 39.5534C34.8665 39.5534 34.5633 39.5534 34.1592 39.4525C33.7549 39.3515 33.5528 39.2506 33.2496 39.1497L34.0581 36.3245C34.9676 36.5263 35.574 36.5263 35.9783 36.2235C36.2815 36.0217 36.6857 35.4164 36.9889 34.6092Z" fill="white"/>
<path d="M58.7175 24.317L55.3825 24.8215C55.1803 24.1152 54.8771 23.6107 54.4728 23.2071C54.0686 22.8035 53.4622 22.6017 52.6537 22.6017C51.5419 22.6017 50.8346 23.0053 50.2282 23.8125C49.7228 24.6198 49.4197 25.6288 49.4197 26.9405C49.4197 28.2522 49.7228 29.3622 50.2282 30.1694C50.7335 30.9766 51.5419 31.3802 52.6537 31.3802C53.3612 31.3802 53.9675 31.1784 54.3718 30.7749C54.776 30.3712 55.1803 29.8666 55.2814 29.2613L58.6165 29.7658C58.3133 31.0775 57.6058 32.1875 56.5951 33.0955C55.4835 33.9027 54.1697 34.4073 52.5526 34.4073C51.1378 34.4073 50.0261 34.1045 49.0154 33.4992C48.0047 32.8937 47.2972 31.9856 46.6909 30.8756C46.1856 29.7658 45.8825 28.4541 45.8825 27.0414C45.8825 25.6288 46.1856 24.317 46.6909 23.2071C47.1962 22.0972 48.0047 21.2899 49.0154 20.6845C50.0261 20.0791 51.1378 19.7764 52.5526 19.7764C54.1697 19.7764 55.4835 20.18 56.5951 21.0881C57.8079 21.6936 58.5154 22.9044 58.7175 24.317Z" fill="white"/>
<path d="M68.1175 34.0036V32.3893H67.9154C67.7133 32.7929 67.3085 33.2974 66.7022 33.701C66.0959 34.1045 65.2875 34.3064 64.277 34.3064C63.468 34.3064 62.6596 34.1045 61.9522 33.8019C61.2448 33.4992 60.7396 32.9946 60.2342 32.3893C59.8299 31.7839 59.6278 30.9766 59.6278 30.0685C59.6278 28.6559 60.1332 27.6469 61.1438 26.9405C62.1543 26.2342 63.569 25.8305 65.3885 25.6288C65.7927 25.6288 66.1969 25.5279 66.6011 25.5279C67.0054 25.5279 67.3085 25.427 67.6117 25.3261C67.8144 25.2252 68.0165 25.0233 68.0165 24.8215V24.6198C68.0165 24.0143 67.8144 23.5098 67.4096 23.1062C67.0054 22.8035 66.5001 22.6017 65.8938 22.6017C65.1864 22.6017 64.6812 22.8035 64.1759 23.1062C63.6701 23.4089 63.468 23.8125 63.2665 24.317L59.931 23.8125C60.2342 22.5008 60.9417 21.4918 62.0533 20.7854C63.1654 20.0791 64.4791 19.7764 65.9948 19.7764C66.9043 19.7764 67.8144 19.9782 68.7238 20.2809C69.5322 20.5836 70.2396 21.0881 70.8459 21.7944C71.3511 22.5008 71.6543 23.5098 71.6543 24.6198V34.2055H68.1175V34.0036ZM67.9154 29.2613V27.3441C67.8144 27.445 67.6117 27.5459 67.4096 27.6469C67.1064 27.7478 66.8032 27.7478 66.5001 27.8485C66.1969 27.9495 65.8938 27.9495 65.6917 27.9495C64.8833 28.0504 64.1759 28.2522 63.7717 28.555C63.3675 28.8576 63.1654 29.3622 63.1654 29.9675C63.1654 30.4721 63.3675 30.8756 63.6701 31.1784C64.0749 31.4812 64.4791 31.5821 65.0854 31.5821C65.8938 31.5821 66.5001 31.3802 67.1064 30.8756C67.7133 30.3712 67.9154 29.8666 67.9154 29.2613Z" fill="white"/>
<path d="M82.5686 20.0797L81.4571 23.2077C81.356 23.1068 81.1539 23.1068 80.9518 23.0059C80.7491 22.905 80.446 22.905 80.1428 22.905C79.5365 22.905 79.0313 23.0059 78.6271 23.3085C78.2229 23.6113 77.8187 24.015 77.6165 24.4185C77.4144 24.9231 77.2123 25.4275 77.2123 25.9321V34.0043H73.5739V19.777H77.1113V21.7951H77.3134C77.5155 21.0888 77.9197 20.4833 78.526 20.1807C79.1323 19.777 79.8397 19.5752 80.547 19.5752C80.9512 19.5752 81.255 19.5752 81.6592 19.6761C82.0634 19.777 82.3665 19.8779 82.5686 20.0797Z" fill="white"/>
<path d="M95.0005 34.0039H91.4631V32.2886H91.261C91.0589 32.793 90.6547 33.1967 90.0484 33.6002C89.442 34.0039 88.7341 34.2058 87.7236 34.2058C86.612 34.2058 85.7026 33.903 84.8935 33.3985C84.0851 32.793 83.3778 31.9859 82.8725 30.8759C82.3673 29.7659 82.1652 28.4542 82.1652 26.8398C82.1652 25.2254 82.4683 23.9136 82.9736 22.8037C83.4788 21.6938 84.1862 20.8865 84.9946 20.382C85.9047 19.8775 86.8141 19.5748 87.8246 19.5748C88.7341 19.5748 89.5431 19.7766 90.1494 20.1802C90.7557 20.5838 91.1599 20.9875 91.362 21.4919H91.4631V15.0342H95.0005V34.0039ZM85.5005 26.8398C85.5005 28.1516 85.8036 29.2615 86.3089 30.0687C86.8141 30.8759 87.6225 31.2796 88.7341 31.2796C89.442 31.2796 90.0483 31.0778 90.5536 30.6741C90.9578 30.2705 91.362 29.766 91.5641 29.0597C91.7662 28.3534 91.8673 27.647 91.8673 26.8398C91.8673 25.629 91.6652 24.519 91.1599 23.7118C90.6547 22.9046 89.9467 22.501 88.8351 22.501C87.7236 22.501 87.0162 22.9046 86.4099 23.7118C85.8036 24.519 85.5005 25.528 85.5005 26.8398Z" fill="white"/>
<path d="M15.5638 34.0048L11.5212 28.1523L10.3085 29.565V34.0048H6.67019V13.5215H10.3085V25.0243H10.5107L14.9575 19.7775H19.2022L13.9468 25.8317L19.5054 34.0048H15.5638Z" fill="white"/>
<path d="M8.38826 16.8507C3.73931 16.8507 -5.91278e-05 13.0165 -5.91278e-05 8.37491C-5.91278e-05 3.73341 3.73931 0 8.38826 0C13.0371 0 16.7766 3.73341 16.7766 8.37491C16.8777 13.0165 13.0371 16.8507 8.38826 16.8507ZM8.38826 3.32979C5.55846 3.32979 3.33505 5.65056 3.33505 8.37491C3.33505 11.2002 5.65953 13.4201 8.38826 13.4201C11.218 13.4201 13.4414 11.0993 13.4414 8.37491C13.5425 5.65056 11.218 3.32979 8.38826 3.32979Z" fill="white"/>
</g>
<defs>
<clipPath id="clip0_5060_35923">
<rect width="95" height="40" fill="white"/>
</clipPath>
</defs>
</svg>
