<svg width="20" height="20" viewBox="0 0 20 20" fill="none" xmlns="http://www.w3.org/2000/svg">
<path d="M5.5 10.9004C7.48809 10.9004 9.09938 12.512 9.09961 14.5C9.09961 16.4882 7.48822 18.0996 5.5 18.0996C3.51195 18.0994 1.90039 16.4881 1.90039 14.5C1.90062 12.5121 3.51209 10.9006 5.5 10.9004ZM5.5 12.0996C4.17483 12.0998 3.09983 13.1748 3.09961 14.5C3.09961 15.8254 4.1747 16.9002 5.5 16.9004C6.82548 16.9004 7.90039 15.8255 7.90039 14.5C7.90017 13.1747 6.82534 12.0996 5.5 12.0996ZM5.50098 13.75C5.91484 13.7503 6.25077 14.0861 6.25098 14.5C6.25098 14.9141 5.91497 15.2497 5.50098 15.25C5.08676 15.25 4.75098 14.9142 4.75098 14.5C4.75119 14.086 5.08689 13.75 5.50098 13.75ZM5.50098 1.90039C6.13765 1.90041 6.68955 1.93068 7.15137 2.03027C7.61952 2.13133 8.03608 2.31172 8.3623 2.6377C8.68861 2.964 8.86959 3.38118 8.9707 3.84961C9.07032 4.31146 9.10058 4.86325 9.10059 5.5C9.10058 6.1367 9.07026 6.68855 8.9707 7.15039C8.86964 7.61875 8.68842 8.03599 8.3623 8.3623C8.03612 8.68825 7.61946 8.86866 7.15137 8.96973C6.68956 9.06932 6.13765 9.09959 5.50098 9.09961C4.86427 9.09961 4.31244 9.06929 3.85059 8.96973C3.38207 8.86863 2.96601 8.68767 2.63965 8.36133C2.31328 8.03496 2.13235 7.61893 2.03125 7.15039C1.93166 6.68851 1.90137 6.13676 1.90137 5.5C1.90138 4.86328 1.93164 4.31145 2.03125 3.84961C2.13237 3.38126 2.31339 2.96493 2.63965 2.63867C2.96596 2.31258 3.38226 2.13133 3.85059 2.03027C4.31241 1.93073 4.86434 1.90039 5.50098 1.90039ZM14.501 1.90039C15.1377 1.90041 15.6896 1.93068 16.1514 2.03027C16.6195 2.13133 17.0361 2.31172 17.3623 2.6377C17.6886 2.96401 17.8696 3.38117 17.9707 3.84961C18.0703 4.31146 18.1006 4.86324 18.1006 5.5C18.1006 6.13671 18.0703 6.68854 17.9707 7.15039C17.8696 7.61875 17.6884 8.03599 17.3623 8.3623C17.0361 8.68825 16.6195 8.86866 16.1514 8.96973C15.6896 9.06932 15.1377 9.09959 14.501 9.09961C13.8643 9.09961 13.3124 9.06929 12.8506 8.96973C12.3821 8.86863 11.966 8.68766 11.6396 8.36133C11.3133 8.03496 11.1324 7.61893 11.0312 7.15039C10.9317 6.68851 10.9014 6.13677 10.9014 5.5C10.9014 4.86327 10.9316 4.31145 11.0312 3.84961C11.1324 3.38125 11.3134 2.96494 11.6396 2.63867C11.966 2.31257 12.3822 2.13133 12.8506 2.03027C13.3124 1.93073 13.8643 1.90039 14.501 1.90039ZM5.50098 3.09961C4.88841 3.09961 4.43934 3.132 4.10449 3.2041C3.77673 3.27479 3.59838 3.37546 3.4873 3.48633C3.37631 3.59732 3.27586 3.77563 3.20508 4.10352C3.1329 4.43835 3.1006 4.8873 3.10059 5.5C3.10059 6.11274 3.13293 6.56161 3.20508 6.89648C3.27586 7.22468 3.37626 7.40263 3.4873 7.51367C3.59835 7.6247 3.77635 7.72512 4.10449 7.7959C4.43936 7.86803 4.88831 7.90039 5.50098 7.90039C6.11363 7.90037 6.56264 7.86806 6.89746 7.7959C7.22531 7.72513 7.40367 7.62465 7.51465 7.51367C7.62545 7.40267 7.72619 7.22487 7.79688 6.89746C7.86905 6.56256 7.90136 6.11285 7.90137 5.5C7.90136 4.88706 7.8691 4.43741 7.79688 4.10254C7.72611 3.77492 7.62558 3.59728 7.51465 3.48633C7.40365 3.37533 7.22542 3.27488 6.89746 3.2041C6.56264 3.13194 6.11362 3.09963 5.50098 3.09961ZM14.501 3.09961C13.8884 3.09961 13.4393 3.13199 13.1045 3.2041C12.7767 3.2748 12.5984 3.37545 12.4873 3.48633C12.3763 3.59732 12.2759 3.77561 12.2051 4.10352C12.1329 4.43835 12.1006 4.88729 12.1006 5.5C12.1006 6.11275 12.1329 6.56161 12.2051 6.89648C12.2759 7.22468 12.3763 7.40263 12.4873 7.51367C12.5984 7.62469 12.7764 7.72512 13.1045 7.7959C13.4394 7.86803 13.8883 7.90039 14.501 7.90039C15.1136 7.90037 15.5626 7.86806 15.8975 7.7959C16.2253 7.72512 16.4037 7.62465 16.5146 7.51367C16.6255 7.40267 16.7262 7.22488 16.7969 6.89746C16.8691 6.56256 16.9014 6.11287 16.9014 5.5C16.9014 4.88704 16.8691 4.43742 16.7969 4.10254C16.7261 3.77491 16.6256 3.59728 16.5146 3.48633C16.4036 3.37533 16.2254 3.27488 15.8975 3.2041C15.5626 3.13194 15.1136 3.09963 14.501 3.09961ZM14.5 4.75C15.1249 4.75 15.2509 4.87529 15.251 5.5C15.251 6.12503 15.125 6.25 14.5 6.25C13.8754 6.24994 13.751 6.12484 13.751 5.5C13.751 4.87548 13.8755 4.75006 14.5 4.75Z" fill="#010101"/>
<path d="M11.5 14.5C11.5 14 14 11.5 14.5 11.5C15 11.5 17.5 14 17.5 14.5C17.5 15 15 17.5 14.5 17.5C14 17.5 11.5 15 11.5 14.5Z" stroke="#09101C" stroke-width="1.2"/>
</svg>
