<svg width="21" height="21" viewBox="0 0 21 21" fill="none" xmlns="http://www.w3.org/2000/svg">
<path d="M10.667 2.5C11.8983 2.5 12.9189 3.39063 13.126 4.5625C14.101 3.88004 15.4535 3.97208 16.3242 4.84277C17.1949 5.71347 17.2858 7.06496 16.6035 8.04004C17.7759 8.24667 18.667 9.26832 18.667 10.5C18.667 11.7316 17.7759 12.7523 16.6035 12.959C17.2863 13.9341 17.1951 15.2863 16.3242 16.1572C15.4533 17.0281 14.1011 17.1193 13.126 16.4365C12.9193 17.6089 11.8986 18.5 10.667 18.5C9.43531 18.5 8.41366 17.6089 8.20703 16.4365C7.23197 17.1188 5.88047 17.0279 5.00977 16.1572C4.13901 15.2865 4.04702 13.9341 4.72949 12.959C3.55762 12.7519 2.66699 11.7313 2.66699 10.5C2.66699 9.26865 3.55754 8.24705 4.72949 8.04004C4.04754 7.06501 4.13923 5.71333 5.00977 4.84277C5.88032 3.97222 7.23199 3.88055 8.20703 4.5625C8.41405 3.39055 9.43564 2.5 10.667 2.5Z" fill="#09101C"/>
<path d="M7.91699 11.25L9.91699 12.75L13.417 8.25" stroke="white" stroke-width="1.2"/>
</svg>
