<svg width="16" height="54" viewBox="0 0 16 54" fill="none" xmlns="http://www.w3.org/2000/svg">
<g clip-path="url(#clip0_7034_75)">
<path d="M8 1.90039C11.9211 1.90039 15.0994 5.07896 15.0996 9C15.0996 12.9212 11.9212 16.0996 8 16.0996C4.07896 16.0994 0.900391 12.9211 0.900391 9C0.900602 5.07909 4.07909 1.9006 8 1.90039ZM8 3.09961C4.74183 3.09982 2.09982 5.74183 2.09961 9C2.09961 12.2583 4.7417 14.9002 8 14.9004C11.2585 14.9004 13.9004 12.2585 13.9004 9C13.9002 5.7417 11.2583 3.09961 8 3.09961ZM8.75 13H7.25L7.4502 8H8.5498L8.75 13ZM8.00098 5C8.41484 5.00026 8.75078 5.33612 8.75098 5.75C8.75098 6.16405 8.41497 6.49974 8.00098 6.5C7.58676 6.5 7.25098 6.16421 7.25098 5.75C7.25117 5.33595 7.58688 5 8.00098 5Z" fill="#FF6400"/>
</g>
<defs>
<clipPath id="clip0_7034_75">
<rect width="16" height="16" fill="white" transform="translate(0 1)"/>
</clipPath>
</defs>
</svg>
